
 
http://www.filmequals.com/wp-content/uploads/2012/06/end-of-watch-movie-poster.jpg

Source Used :-

 Video - Lumix - Thanks!
 Audio - Lumix - Thanks!

 Video
 ID : 0
 Format : MPEG-4 Visual
 Format profile : Advanced Simple@L5
 Format settings, BVOP : 2
 Format settings, QPel : Yes
 Format settings, GMC : No warppoints
 Format settings, Matrix : Default (H.263)
 Codec ID : XVID
 Codec ID/Hint : XviD
 Duration : 1h 44mn
 Bit rate : 797 Kbps
 Width : 672 pixels
 Height : 368 pixels
 Display aspect ratio : 1.85:1
 Frame rate : 25.000 fps
 Color space : YUV
 Chroma subsampling : 4:2:0
 Bit depth : 8 bits
 Scan type : Progressive
 Compression mode : Lossy
 Bits/(Pixel*Frame) : 0.129
 Stream size : 594 MiB (86%)
 Writing library : XviD 1.2.1 (UTC 2008-12-04)

 Audio
 ID : 1
 Format : MPEG Audio
 Format version : Version 1
 Format profile : Layer 3
 Mode : Joint stereo
 Mode extension : MS Stereo
 Codec ID : 55
 Codec ID/Hint : MP3
 Duration : 1h 44mn
 Bit rate mode : Constant
 Bit rate : 128 Kbps
 Channel(s) : 2 channels
 Sampling rate : 48.0 KHz
 Compression mode : Lossy
 Stream size : 95.4 MiB (14%)
 Alignment : Aligned on interleaves
 Interleave, duration : 160 ms (4.00 video frames)
 Interleave, preload duration : 216 ms
 Title : English_track_1_
 Writing library : LAME3.99r
 Encoding settings : -m j -V 4 -q 2 -lowpass 17 -b 128

IMDB: http://www.imdb.com/title/tt1855199/


Two young officers are marked for death after confiscating a small cache of money and firearms from the members of a notorious cartel, during a routine traffic stop.

 
http://img21.imageshack.us/img21/2253/vlcsnap2012111206h18m38.png 
http://img560.imageshack.us/img560/641/vlcsnap2012111206h20m52.png 
http://img692.imageshack.us/img692/4499/vlcsnap2012111206h07m45.png



